<?xml version="1.0" encoding="UTF-8" standalone="no"?>
<svg
   xmlns:dc="http://purl.org/dc/elements/1.1/"
   xmlns:cc="http://creativecommons.org/ns#"
   xmlns:rdf="http://www.w3.org/1999/02/22-rdf-syntax-ns#"
   xmlns:svg="http://www.w3.org/2000/svg"
   xmlns="http://www.w3.org/2000/svg"
   xmlns:sodipodi="http://sodipodi.sourceforge.net/DTD/sodipodi-0.dtd"
   xmlns:inkscape="http://www.inkscape.org/namespaces/inkscape"
   sodipodi:docname="logo-betesda.svg"
   inkscape:version="1.0 (6e3e5246a0, 2020-05-07)"
   id="svg191"
   version="1.1"
   viewBox="0 0 148 210"
   height="210mm"
   width="148mm">
  <defs
     id="defs185" />
  <sodipodi:namedview
     inkscape:window-maximized="1"
     inkscape:window-y="27"
     inkscape:window-x="0"
     inkscape:window-height="713"
     inkscape:window-width="1366"
     showborder="true"
     showgrid="false"
     inkscape:document-rotation="0"
     inkscape:current-layer="layer1"
     inkscape:document-units="mm"
     inkscape:cy="560"
     inkscape:cx="400"
     inkscape:zoom="0.35"
     inkscape:pageshadow="2"
     inkscape:pageopacity="0.0"
     borderopacity="1.0"
     bordercolor="#666666"
     pagecolor="#ffffff"
     id="base" />
  <metadata
     id="metadata188">
    <rdf:RDF>
      <cc:Work
         rdf:about="">
        <dc:format>image/svg+xml</dc:format>
        <dc:type
           rdf:resource="http://purl.org/dc/dcmitype/StillImage" />
        <dc:title></dc:title>
      </cc:Work>
    </rdf:RDF>
  </metadata>
  <g
     id="layer1"
     inkscape:groupmode="layer"
     inkscape:label="Layer 1">
    <path
       sodipodi:nodetypes="cccccccscc"
       id="path102"
       d="m 59.69442,90.854375 c 12.284862,-18.40284 17.879307,-36.958426 -7.60581,-55.203393 48.58316,-0.58127 68.09008,30.089179 60.63071,79.495578 7.77442,-2.28749 10.79462,-7.49849 13.68529,-12.78913 3.17218,34.88837 -10.25645,64.06105 -54.475943,62.62746 C 40.260201,164.50929 39.052977,143.7908 47.546207,116.62594 32.85992,126.14172 31.164576,143.6842 34.111951,159.25079 10.373437,150.417 10.902376,124.77621 19.431116,109.87243 c 8.963083,-15.662791 32.13184,-27.232773 30.5854,-44.277167 10.691622,4.964745 11.152823,18.995568 9.677904,25.259112 z"
       style="fill:#2c3e50;fill-opacity:1;stroke:#2c3e50;stroke-width:0.554594px;stroke-linecap:butt;stroke-linejoin:miter;stroke-opacity:1"
       inkscape:export-xdpi="96"
       inkscape:export-ydpi="96" />
    <path
       style="fill:#2c3e50;fill-opacity:1;stroke:none;stroke-width:0.554594px;stroke-linecap:butt;stroke-linejoin:miter;stroke-opacity:1"
       d="m 21.904181,17.349352 c 5.852847,11.997885 23.672977,20.357297 32.709339,28.191787 7.615369,6.60253 9.775375,18.998752 9.244882,28.78923 C 60.713533,57.522988 39.108017,52.432944 30.134644,45.731766 22.242049,39.837684 22.526194,27.443678 21.904181,17.349352 Z"
       id="path104"
       sodipodi:nodetypes="cscsc"
       inkscape:export-xdpi="96"
       inkscape:export-ydpi="96" />
    <path
       sodipodi:nodetypes="cscscccccc"
       id="path106"
       d="m 118.53935,21.922063 c -10.7893,19.317121 -25.403904,47.511531 -6.84998,60.625495 9.29554,6.570099 22.71283,3.512804 33.86834,-4.36947 -6.93759,27.670632 -23.16882,59.716592 -57.32345,56.451992 -10.361228,-0.99035 -23.141187,-13.14243 -35.191342,-2.35475 l 4.85247,-4.16737 -5.877476,2.44575 6.73088,-5.9956 C 57.83196,109.45635 67.190942,112.32567 74.7342,112.0195 58.853655,60.451414 97.186738,40.854253 118.53935,21.922063 Z"
       style="fill:#bdc3c7;fill-opacity:1;stroke:#bdc3c7;stroke-width:0.554594px;stroke-linecap:butt;stroke-linejoin:miter;stroke-opacity:1"
       inkscape:export-xdpi="96"
       inkscape:export-ydpi="96" />
    <g
       transform="matrix(0.55459424,0,0,0.55459424,-201.4634,-146.71279)"
       id="g121"
       style="fill:#9c7636;fill-opacity:1;stroke:#9c7636;stroke-opacity:1"
       inkscape:export-xdpi="96"
       inkscape:export-ydpi="96">
      <path
         style="fill:#9c7636;fill-opacity:1;stroke:#9c7636;stroke-width:1px;stroke-linecap:butt;stroke-linejoin:miter;stroke-opacity:1"
         d="m 373.35616,527.75567 c 7.66512,-0.94552 10.45029,-6.49461 15.47406,-9.93188 13.3469,31.65672 17.6289,63.14565 25.50898,94.70118 -7.42422,-27.41242 -13.6684,-54.47764 -24.71451,-82.95573 6.36192,31.26594 8.93698,61.98561 12.62723,92.86615 -5.13634,-29.1062 -8.99023,-57.80657 -16.78782,-87.75491 5.39017,32.31768 3.57479,61.92102 4.31431,92.48679 -1.60533,-24.67813 -3.95848,-49.72724 -9.66922,-76.44198 1.58114,24.29851 1.92024,48.69768 2.49153,73.07804 z"
         id="path108"
         sodipodi:nodetypes="cccccccccc" />
      <path
         style="fill:#9c7636;fill-opacity:1;stroke:#9c7636;stroke-width:1px;stroke-linecap:butt;stroke-linejoin:miter;stroke-opacity:1"
         d="m 415.98824,616.00981 c 31.53002,-0.74618 51.31642,-17.06226 77.16913,-20.80792 10.24446,-1.48426 23.62514,2.05402 30.25766,6.98867 -32.19067,-12.55578 -66.49635,19.65041 -107.42679,13.81925 z"
         id="path110"
         sodipodi:nodetypes="cscc" />
      <path
         style="fill:#9c7636;fill-opacity:1;stroke:#9c7636;stroke-width:1px;stroke-linecap:butt;stroke-linejoin:miter;stroke-opacity:1"
         d="m 449.25331,621.51737 c 19.28102,-10.98979 30.61569,-15.14111 47.24429,-17.44305 7.17842,-0.99373 14.99147,0.58592 21.67356,1.70635 l -11.41479,9.11313 c -19.65007,-2.6053 -38.787,4.88384 -57.91,12.64717 17.27662,-11.09245 37.32381,-16.30023 61.05294,-19.34102 -15.39824,-5.26642 -41.02972,6.38173 -60.646,13.31742 z"
         id="path112"
         sodipodi:nodetypes="caccccc" />
      <path
         style="fill:#9c7636;fill-opacity:1;stroke:#9c7636;stroke-width:1px;stroke-linecap:butt;stroke-linejoin:miter;stroke-opacity:1"
         d="m 497.0844,565.63379 3.51659,-0.11327 22.14093,32.09231 c -9.05152,-6.91799 -19.02523,-7.44833 -29.12664,-7.09419 5.96732,-2.56795 12.12273,-4.39691 19.46588,-1.5593 z"
         id="path115"
         sodipodi:nodetypes="cccccc" />
      <path
         style="fill:#9c7636;fill-opacity:1;stroke:#9c7636;stroke-width:1px;stroke-linecap:butt;stroke-linejoin:miter;stroke-opacity:1"
         d="m 539.91621,606.74653 c 12.70504,-8.27692 28.32183,-9.97397 43.42349,-12.83507 -15.14427,0.38327 -29.82516,0.8266 -44.45894,9.45141 10.41087,-7.67611 23.68927,-11.62557 38.66182,-13.37327 -13.61186,-1.70715 -27.01001,3.1235 -42.61681,10.48642 12.06648,-11.56115 27.2526,-15.20714 46.24772,-16.01499 5.80068,-0.2467 12.20035,-5.13968 17.68146,-8.02428 -11.97704,3.5608 -25.39619,2.54021 -38.79716,5.32185 -12.65961,2.62776 -24.03078,10.67133 -34.01332,18.64491 3.99251,5.48043 8.86381,6.27588 13.87174,6.34302 z"
         id="path117"
         sodipodi:nodetypes="cccccscscc" />
      <path
         style="fill:#9c7636;fill-opacity:1;stroke:#9c7636;stroke-width:1px;stroke-linecap:butt;stroke-linejoin:miter;stroke-opacity:1"
         d="m 569.35369,540.07795 c -1.70713,1.75559 43.27825,37.05497 48.54934,42.24366 2.96341,2.91708 -11.36984,5.76081 -17.10096,8.43162 4.39039,-2.4478 10.06826,-3.54706 12.71973,-7.81625 l -44.24015,-40.65861 z"
         id="path119"
         sodipodi:nodetypes="cscccc" />
    </g>
    <path
       id="path123"
       d="m 36.323184,133.00007 6.861372,-2.31593 -0.117184,1.40666 -7.060976,2.43917 z"
       style="fill:#9c7636;fill-opacity:1;stroke:#9c7636;stroke-width:0.554594px;stroke-linecap:butt;stroke-linejoin:miter;stroke-opacity:1"
       inkscape:export-xdpi="96"
       inkscape:export-ydpi="96" />
  </g>
</svg>
